<?xml version="1.0" encoding="UTF-8" standalone="no"?>
<!-- Created with Inkscape (http://www.inkscape.org/) -->

<svg
   xmlns:dc="http://purl.org/dc/elements/1.1/"
   xmlns:cc="http://creativecommons.org/ns#"
   xmlns:rdf="http://www.w3.org/1999/02/22-rdf-syntax-ns#"
   xmlns:svg="http://www.w3.org/2000/svg"
   xmlns="http://www.w3.org/2000/svg"
   xmlns:sodipodi="http://sodipodi.sourceforge.net/DTD/sodipodi-0.dtd"
   xmlns:inkscape="http://www.inkscape.org/namespaces/inkscape"
   width="952.00269"
   height="123.52026"
   viewBox="0 0 251.88403 32.681402"
   version="1.1"
   id="svg1008"
   inkscape:version="0.92.0 r15299"
   sodipodi:docname="lpl financial.svg">
  <defs
     id="defs1002" />
  <sodipodi:namedview
     id="base"
     pagecolor="#ffffff"
     bordercolor="#666666"
     borderopacity="1.0"
     inkscape:pageopacity="0.0"
     inkscape:pageshadow="2"
     inkscape:zoom="0.35"
     inkscape:cx="474.50134"
     inkscape:cy="60.260132"
     inkscape:document-units="mm"
     inkscape:current-layer="layer1"
     showgrid="false"
     fit-margin-top="0"
     fit-margin-left="0"
     fit-margin-right="0"
     fit-margin-bottom="0"
     units="px"
     inkscape:window-width="1280"
     inkscape:window-height="744"
     inkscape:window-x="-4"
     inkscape:window-y="-4"
     inkscape:window-maximized="1" />
  <metadata
     id="metadata1005">
    <rdf:RDF>
      <cc:Work
         rdf:about="">
        <dc:format>image/svg+xml</dc:format>
        <dc:type
           rdf:resource="http://purl.org/dc/dcmitype/StillImage" />
        <dc:title></dc:title>
      </cc:Work>
    </rdf:RDF>
  </metadata>
  <g
     inkscape:label="Layer 1"
     inkscape:groupmode="layer"
     id="layer1"
     transform="translate(148.97967,-132.09577)">
    <g
       transform="matrix(0.35277777,0,0,-0.35277777,-148.58279,164.3803)"
       inkscape:label="ink_ext_XXXXXX"
       id="g1018">
      <g
         transform="scale(0.1)"
         id="g1020">
        <path
           inkscape:connector-curvature="0"
           id="path1022"
           style="fill:#10427a;fill-opacity:1;fill-rule:nonzero;stroke:none"
           d="M 0,576.477 V 392.859 H 383.672 V 9.23828 H 567.355 V 576.527 L 0,576.477" />
        <path
           inkscape:connector-curvature="0"
           id="path1024"
           style="fill:#10427a;fill-opacity:1;fill-rule:nonzero;stroke:none"
           d="M 894.664,903.902 0,903.746 V 720.133 H 711.074 V 9.23828 h 183.59 V 903.902" />
        <path
           inkscape:connector-curvature="0"
           id="path1026"
           style="fill:#10427a;fill-opacity:1;fill-rule:nonzero;stroke:none"
           d="m 0,9.23828 h 238.793 v 238.844 H 0 Z" />
        <path
           inkscape:connector-curvature="0"
           id="path1028"
           style="fill:#10427a;fill-opacity:1;fill-rule:nonzero;stroke:none"
           d="m 1411.12,64.6484 h 251.19 l 31.4,159.7776 h 50.79 V 9.23828 H 1231.95 V 48.9453 l 86.81,19.3945 V 615.07 l -86.81,19.395 v 39.711 h 275.21 V 634.465 L 1411.12,615.07 V 64.6484" />
        <path
           inkscape:connector-curvature="0"
           id="path1030"
           style="fill:#10427a;fill-opacity:1;fill-rule:nonzero;stroke:none"
           d="m 2101.91,324.16 c 17.23,0 33.39,2.61 48.48,7.852 15.08,5.226 26.94,12.148 35.56,20.781 12.31,12.93 22.77,29.855 31.41,50.793 8.61,20.918 12.93,43.402 12.93,67.414 0,23.391 -4.17,44.789 -12.48,64.188 -8.31,19.39 -18.93,36.781 -31.86,52.175 -10.48,10.465 -23.24,18.614 -38.32,24.473 -15.1,5.844 -31.56,8.773 -49.42,8.773 H 1987.39 V 324.16 Z M 1987.39,270.598 V 68.3398 l 87.74,-19.3945 V 9.23828 H 1817.46 V 48.9453 l 77.58,19.3945 V 615.07 l -77.58,19.395 v 39.711 h 305.7 c 28.92,0 55.24,-3.852 78.95,-11.543 23.69,-7.707 43.56,-18.629 59.57,-32.789 21.54,-19.707 38.63,-42.797 51.25,-69.262 12.62,-26.48 18.94,-54.488 18.94,-84.039 0,-30.797 -6.62,-60.488 -19.86,-89.121 -13.25,-28.633 -30.63,-52.5 -52.17,-71.57 -16.02,-14.172 -36.02,-25.254 -60.03,-33.254 -24.02,-8.008 -49.88,-12 -77.58,-12 h -134.84" />
        <path
           inkscape:connector-curvature="0"
           id="path1032"
           style="fill:#10427a;fill-opacity:1;fill-rule:nonzero;stroke:none"
           d="m 2541.51,64.6484 h 251.19 l 31.4,159.7776 h 50.79 V 9.23828 H 2362.34 V 48.9453 l 86.81,19.3945 V 615.07 l -86.81,19.395 v 39.711 h 275.21 V 634.465 L 2541.51,615.07 V 64.6484" />
        <path
           inkscape:connector-curvature="0"
           id="path1034"
           style="fill:#10427a;fill-opacity:1;fill-rule:nonzero;stroke:none"
           d="m 3503.81,218.879 -15.69,94.195 H 3333.89 V 71.1133 L 3441.94,53.5664 V 9.23828 H 3154.72 V 48.9453 l 86.82,22.168 V 615.07 l -86.82,19.395 v 39.711 h 519.95 V 476.543 h -49.87 l -29.55,144.066 H 3333.89 V 368.488 h 154.23 l 15.69,94.203 h 47.1 V 218.879 h -47.1" />
        <path
           inkscape:connector-curvature="0"
           id="path1036"
           style="fill:#10427a;fill-opacity:1;fill-rule:nonzero;stroke:none"
           d="m 3775.31,656.625 c 0,17.852 5.08,32.008 15.25,42.488 10.15,10.457 24.15,15.696 42.02,15.696 17.84,0 32,-5.239 42.48,-15.696 10.46,-10.48 15.69,-24.636 15.69,-42.488 0,-17.859 -5.23,-31.859 -15.69,-42.016 -10.48,-10.16 -24.64,-15.238 -42.48,-15.238 -17.87,0 -31.87,5.078 -42.02,15.238 -10.17,10.157 -15.25,24.157 -15.25,42.016 z m -58.18,-186.547 v 37.863 h 160.69 V 64.6484 l 71.12,-17.5468 V 9.23828 H 3717.13 V 47.1016 l 71.11,17.5468 V 452.531 l -71.11,17.547" />
        <path
           inkscape:connector-curvature="0"
           id="path1038"
           style="fill:#10427a;fill-opacity:1;fill-rule:nonzero;stroke:none"
           d="m 4076.38,452.531 -71.11,17.547 v 37.863 h 132.98 l 20.33,-92.355 h 3.69 c 18.47,31.402 43.25,56.176 74.34,74.348 31.09,18.152 64.8,27.246 101.13,27.246 24.62,0 46.78,-4.317 66.49,-12.934 19.7,-8.629 35.4,-20.933 47.1,-36.941 12.31,-17.242 21.08,-41.414 26.32,-72.5 5.22,-31.094 7.85,-73.114 7.85,-126.055 V 64.6484 l 71.11,-17.5468 V 9.23828 H 4334.04 V 47.1016 l 61.88,17.5468 V 270.598 c 0,39.394 -1.08,69.101 -3.23,89.121 -2.17,20 -6.01,35.554 -11.55,46.64 -15.4,30.157 -42.48,45.246 -81.27,45.246 -17.24,0 -33.86,-3.089 -49.87,-9.238 -16.01,-6.156 -30.17,-14.465 -42.48,-24.933 -13.54,-12.325 -23.54,-26.633 -30.01,-42.942 -6.46,-16.316 -10.32,-37.402 -11.55,-63.262 V 64.6484 l 61.88,-17.5468 V 9.23828 H 4005.27 V 47.1016 l 71.11,17.5468 V 452.531" />
        <path
           inkscape:connector-curvature="0"
           id="path1040"
           style="fill:#10427a;fill-opacity:1;fill-rule:nonzero;stroke:none"
           d="m 4761.63,53.5664 c 17.24,0 35.25,4.4609 54.04,13.3984 18.77,8.9141 34.62,21.375 47.55,37.3982 19.08,23.391 28.63,57.864 28.63,103.43 0,10.469 -0.31,20.781 -0.92,30.937 -0.63,10.168 -1.54,19.864 -2.77,29.094 -37.56,-7.383 -68.8,-15.09 -93.74,-23.086 -24.94,-8.008 -44.95,-17.082 -60.02,-27.25 -15.1,-10.152 -25.73,-21.851 -31.87,-35.086 -6.16,-13.25 -9.24,-28.488 -9.24,-45.722 0,-26.477 6.01,-46.9534 18.01,-61.4066 12.01,-14.4726 28.78,-21.707 50.33,-21.707 z m -163.45,63.7306 c 0,24.004 5.38,45.242 16.16,63.719 10.76,18.468 27.84,34.933 51.25,49.406 23.39,14.461 53.56,26.922 90.51,37.402 36.94,10.465 81.27,19.696 132.98,27.703 -3.08,36.328 -6.62,64.649 -10.62,84.969 -4.01,20.317 -9.4,36.621 -16.16,48.949 -8.63,16 -20.64,27.844 -36.02,35.551 -15.4,7.695 -32.02,11.547 -49.87,11.547 -17.24,0 -32.79,-3.09 -46.63,-9.238 -13.86,-6.16 -23.25,-14.473 -28.18,-24.938 8.62,-6.781 14.93,-14.933 18.94,-24.465 3.99,-9.562 6,-18.632 6,-27.246 0,-15.402 -5.07,-27.558 -15.24,-36.484 -10.16,-8.93 -22.63,-13.391 -37.4,-13.391 -14.78,0 -26.94,4.922 -36.48,14.778 -9.55,9.843 -14.31,23.699 -14.31,41.558 0,19.074 5.22,36.164 15.7,51.258 10.46,15.078 24.15,27.703 41.09,37.867 16.93,10.156 36.02,17.844 57.26,23.082 21.24,5.227 42.32,7.856 63.26,7.856 52.33,0 93.59,-15.102 123.75,-45.254 38.18,-38.184 57.27,-105.899 57.27,-203.176 V 134.836 c 0,-30.793 1.99,-51.8751 5.99,-63.2618 4.01,-11.3984 12.78,-17.082 26.33,-17.082 h 41.55 V 26.7852 C 5010.99,8.9375 4976.5,0 4951.88,0 c -9.23,0 -16.94,1.54297 -23.09,4.61719 -6.16,3.08594 -11.08,8.45701 -14.77,16.16411 -3.7,7.6953 -6.32,18.0078 -7.86,30.9375 -1.54,12.9296 -2.3,29.2382 -2.3,48.9452 h -3.69 C 4881.08,69.2695 4855.83,44.6406 4824.44,26.7852 4793.04,8.9375 4759.17,0 4722.84,0 c -38.78,0 -69.25,10.3047 -91.42,30.9375 -22.17,20.625 -33.24,49.4141 -33.24,86.3595" />
        <path
           inkscape:connector-curvature="0"
           id="path1042"
           style="fill:#10427a;fill-opacity:1;fill-rule:nonzero;stroke:none"
           d="m 5163.35,452.531 -71.11,17.547 v 37.863 h 132.99 l 20.32,-92.355 h 3.69 c 18.48,31.402 43.25,56.176 74.35,74.348 31.08,18.152 64.79,27.246 101.12,27.246 24.62,0 46.79,-4.317 66.49,-12.934 19.7,-8.629 35.4,-20.933 47.1,-36.941 12.32,-17.242 21.09,-41.414 26.32,-72.5 5.23,-31.094 7.85,-73.114 7.85,-126.055 V 64.6484 l 71.12,-17.5468 V 9.23828 H 5421.02 V 47.1016 l 61.87,17.5468 V 270.598 c 0,39.394 -1.08,69.101 -3.23,89.121 -2.17,20 -6.01,35.554 -11.54,46.64 -15.4,30.157 -42.48,45.246 -81.27,45.246 -17.25,0 -33.87,-3.089 -49.88,-9.238 -16.01,-6.156 -30.17,-14.465 -42.48,-24.933 -13.54,-12.325 -23.54,-26.633 -30.01,-42.942 -6.46,-16.316 -10.32,-37.402 -11.55,-63.262 V 64.6484 l 61.89,-17.5468 V 9.23828 H 5092.24 V 47.1016 l 71.11,17.5468 V 452.531" />
        <path
           inkscape:connector-curvature="0"
           id="path1044"
           style="fill:#10427a;fill-opacity:1;fill-rule:nonzero;stroke:none"
           d="m 5905.87,517.18 c 53.57,0 96.19,-13.094 127.91,-39.254 31.7,-26.18 47.56,-61.11 47.56,-104.821 0,-47.41 -19.09,-71.113 -57.26,-71.113 -17.87,0 -31.71,4.922 -41.56,14.778 -9.85,9.843 -14.77,23.093 -14.77,39.714 0,15.383 4.15,28.625 12.47,39.707 8.31,11.086 19.53,18.782 33.7,23.094 -17.86,33.852 -52.03,50.793 -102.51,50.793 -50.49,0 -87.28,-16.324 -110.36,-48.945 -23.09,-32.645 -34.63,-84.043 -34.63,-154.227 0,-58.508 7.99,-103.136 24.01,-133.918 24.62,-47.4138 64.95,-71.113 120.98,-71.113 28.31,0 55.41,6.1523 81.27,18.4766 25.86,12.3047 48.02,29.8514 66.49,52.6364 l 27.71,-22.16 C 6062.25,72.6484 6033.92,44.6406 6001.92,26.7852 5969.89,8.9375 5932.34,0 5889.25,0 c -43.11,0 -80.51,8.78125 -112.22,26.3281 -31.71,17.5391 -56.49,43.2422 -74.33,77.1099 -10.48,19.699 -18.64,42.324 -24.48,67.882 -5.85,25.535 -8.77,52.782 -8.77,81.727 0,40.019 5.54,76.191 16.62,108.516 11.08,32.324 26.93,60.031 47.56,83.117 20.62,23.09 45.56,40.937 74.81,53.562 29.23,12.613 61.72,18.938 97.43,18.938" />
        <path
           inkscape:connector-curvature="0"
           id="path1046"
           style="fill:#10427a;fill-opacity:1;fill-rule:nonzero;stroke:none"
           d="m 6185.69,656.625 c 0,17.852 5.07,32.008 15.24,42.488 10.16,10.457 24.15,15.696 42.02,15.696 17.84,0 32,-5.239 42.48,-15.696 10.46,-10.48 15.69,-24.636 15.69,-42.488 0,-17.859 -5.23,-31.859 -15.69,-42.016 -10.48,-10.16 -24.64,-15.238 -42.48,-15.238 -17.87,0 -31.86,5.078 -42.02,15.238 -10.17,10.157 -15.24,24.157 -15.24,42.016 z M 6127.5,470.078 v 37.863 h 160.7 V 64.6484 l 71.11,-17.5468 V 9.23828 H 6127.5 V 47.1016 l 71.12,17.5468 V 452.531 l -71.12,17.547" />
        <path
           inkscape:connector-curvature="0"
           id="path1048"
           style="fill:#10427a;fill-opacity:1;fill-rule:nonzero;stroke:none"
           d="m 6562.48,53.5664 c 17.24,0 35.25,4.4609 54.04,13.3984 18.77,8.9141 34.62,21.375 47.55,37.3982 19.08,23.391 28.63,57.864 28.63,103.43 0,10.469 -0.32,20.781 -0.92,30.937 -0.63,10.168 -1.54,19.864 -2.77,29.094 -37.56,-7.383 -68.8,-15.09 -93.74,-23.086 -24.94,-8.008 -44.95,-17.082 -60.02,-27.25 -15.1,-10.152 -25.73,-21.851 -31.87,-35.086 -6.16,-13.25 -9.24,-28.488 -9.24,-45.722 0,-26.477 6.01,-46.9534 18.01,-61.4066 12.01,-14.4726 28.78,-21.707 50.33,-21.707 z m -163.45,63.7306 c 0,24.004 5.38,45.242 16.16,63.719 10.76,18.468 27.84,34.933 51.25,49.406 23.39,14.461 53.56,26.922 90.51,37.402 36.94,10.465 81.26,19.696 132.98,27.703 -3.08,36.328 -6.62,64.649 -10.62,84.969 -4.02,20.317 -9.4,36.621 -16.16,48.949 -8.63,16 -20.64,27.844 -36.02,35.551 -15.4,7.695 -32.02,11.547 -49.87,11.547 -17.24,0 -32.79,-3.09 -46.63,-9.238 -13.86,-6.16 -23.26,-14.473 -28.18,-24.938 8.62,-6.781 14.92,-14.933 18.94,-24.465 3.99,-9.562 6,-18.632 6,-27.246 0,-15.402 -5.07,-27.558 -15.24,-36.484 -10.16,-8.93 -22.63,-13.391 -37.4,-13.391 -14.78,0 -26.94,4.922 -36.48,14.778 -9.55,9.843 -14.31,23.699 -14.31,41.558 0,19.074 5.22,36.164 15.7,51.258 10.46,15.078 24.15,27.703 41.09,37.867 16.93,10.156 36.02,17.844 57.26,23.082 21.24,5.227 42.32,7.856 63.26,7.856 52.33,0 93.59,-15.102 123.75,-45.254 38.18,-38.184 57.27,-105.899 57.27,-203.176 V 134.836 c 0,-30.793 1.99,-51.8751 5.99,-63.2618 4.01,-11.3984 12.78,-17.082 26.33,-17.082 h 41.55 V 26.7852 C 6811.84,8.9375 6777.35,0 6752.73,0 c -9.23,0 -16.94,1.54297 -23.09,4.61719 -6.16,3.08594 -11.08,8.45701 -14.77,16.16411 -3.7,7.6953 -6.32,18.0078 -7.86,30.9375 -1.54,12.9296 -2.3,29.2382 -2.3,48.9452 h -3.69 C 6681.93,69.2695 6656.68,44.6406 6625.29,26.7852 6593.89,8.9375 6560.02,0 6523.69,0 c -38.78,0 -69.25,10.3047 -91.42,30.9375 -22.17,20.625 -33.24,49.4141 -33.24,86.3595" />
        <path
           inkscape:connector-curvature="0"
           id="path1050"
           style="fill:#10427a;fill-opacity:1;fill-rule:nonzero;stroke:none"
           d="m 6956.83,674.176 -71.12,17.547 v 37.863 h 160.7 V 64.6484 l 71.11,-17.5468 V 9.23828 H 6885.71 V 47.1016 l 71.12,17.5468 V 674.176" />
      </g>
    </g>
  </g>
</svg>
